<!DOCTYPE svg PUBLIC "-//W3C//DTD SVG 1.1//EN" "http://www.w3.org/Graphics/SVG/1.1/DTD/svg11.dtd">
<!-- Uploaded to: SVG Repo, www.svgrepo.com, Transformed by: SVG Repo Mixer Tools -->
<svg width="800px" height="800px" viewBox="0 0 28 28" version="1.1" xmlns="http://www.w3.org/2000/svg" xmlns:xlink="http://www.w3.org/1999/xlink" xmlns:sketch="http://www.bohemiancoding.com/sketch/ns" fill="#f2e1ca">
<g id="SVGRepo_bgCarrier" stroke-width="0"/>
<g id="SVGRepo_tracerCarrier" stroke-linecap="round" stroke-linejoin="round"/>
<g id="SVGRepo_iconCarrier"> <title>output</title> <desc>Created with Sketch Beta.</desc> <defs> </defs> <g id="Page-1" stroke="none" stroke-width="1" fill="none" fill-rule="evenodd" sketch:type="MSPage"> <g id="Icon-Set" sketch:type="MSLayerGroup" transform="translate(-310.000000, -933.000000)" fill="#f2e1ca"> <path d="M336,957 C336,958.087 335.087,959 334,959 L313.935,959.033 C312.848,959.033 311.967,958.152 311.967,957.065 L312,937 C312,935.913 312.913,935 314,935 L325,935 L325,933 L314,933 C311.827,933 310,935.221 310,937.394 L310,957.065 C310,959.238 311.762,961 313.935,961 L333.606,961 C335.779,961 338,959.173 338,957 L338,946 L336,946 L336,957 L336,957 Z M336.979,933 L330,933 C329.433,933.001 329.001,933.459 329,934 C328.999,934.541 329.433,935.001 330,935 L334.395,934.968 L319.308,949.357 C318.908,949.738 318.908,950.355 319.308,950.736 C319.706,951.117 320.354,951.117 320.753,950.736 L335.971,936.222 L336,941 C335.999,941.541 336.433,942.001 337,942 C337.567,941.999 337.999,941.541 338,941 L338,933.975 C338.001,933.434 337.546,932.999 336.979,933 L336.979,933 Z" id="output" sketch:type="MSShapeGroup"> </path> </g> </g> </g>
</svg>